<mxfile host="app.diagrams.net" agent="Mozilla/5.0 (Windows NT 10.0; Win64; x64) AppleWebKit/537.36 (KHTML, like Gecko) Chrome/129.0.0.0 Safari/537.36" version="24.7.17">
  <diagram id="prtHgNgQTEPvFCAcTncT" name="Page-1">
    <mxGraphModel grid="0" page="1" gridSize="10" guides="1" tooltips="1" connect="1" arrows="1" fold="1" pageScale="1" pageWidth="1169" pageHeight="1654" math="0" shadow="0">
      <root>
        <mxCell id="0" />
        <mxCell id="1" parent="0" />
        <mxCell id="AN-kq-exyotqL5OQ-fnr-7" style="edgeStyle=orthogonalEdgeStyle;rounded=0;orthogonalLoop=1;jettySize=auto;html=1;entryX=0;entryY=0.5;entryDx=0;entryDy=0;" edge="1" parent="1" source="n9ktEe5yNUZy0bc-ptNR-20" target="n9ktEe5yNUZy0bc-ptNR-22">
          <mxGeometry relative="1" as="geometry" />
        </mxCell>
        <mxCell id="n9ktEe5yNUZy0bc-ptNR-20" value="" style="strokeWidth=2;html=1;shape=mxgraph.flowchart.start_2;whiteSpace=wrap;strokeColor=none;fontColor=#393C56;fillColor=#000000;" vertex="1" parent="1">
          <mxGeometry x="73" y="192" width="20" height="20" as="geometry" />
        </mxCell>
        <mxCell id="AN-kq-exyotqL5OQ-fnr-8" style="edgeStyle=orthogonalEdgeStyle;rounded=0;orthogonalLoop=1;jettySize=auto;html=1;entryX=0.5;entryY=0;entryDx=0;entryDy=0;" edge="1" parent="1" source="n9ktEe5yNUZy0bc-ptNR-22" target="n9ktEe5yNUZy0bc-ptNR-25">
          <mxGeometry relative="1" as="geometry" />
        </mxCell>
        <mxCell id="n9ktEe5yNUZy0bc-ptNR-22" value="Options Selection" style="rounded=1;whiteSpace=wrap;html=1;strokeColor=#E07A5F;fontColor=#393C56;fillColor=#F2CC8F;" vertex="1" parent="1">
          <mxGeometry x="150" y="173" width="125" height="58" as="geometry" />
        </mxCell>
        <mxCell id="n9ktEe5yNUZy0bc-ptNR-30" value="" style="edgeStyle=orthogonalEdgeStyle;rounded=0;orthogonalLoop=1;jettySize=auto;html=1;strokeColor=#000000;fontColor=#393C56;fillColor=#F2CC8F;strokeWidth=1;entryX=0;entryY=0.5;entryDx=0;entryDy=0;exitX=1;exitY=0.5;exitDx=0;exitDy=0;" edge="1" parent="1" source="n9ktEe5yNUZy0bc-ptNR-25" target="n9ktEe5yNUZy0bc-ptNR-29">
          <mxGeometry relative="1" as="geometry">
            <Array as="points">
              <mxPoint x="425" y="327" />
              <mxPoint x="425" y="327" />
            </Array>
          </mxGeometry>
        </mxCell>
        <mxCell id="n9ktEe5yNUZy0bc-ptNR-32" value="[Purchase]" style="edgeLabel;html=1;align=center;verticalAlign=middle;resizable=0;points=[];strokeColor=#E07A5F;fontColor=#393C56;fillColor=#F2CC8F;" connectable="0" vertex="1" parent="n9ktEe5yNUZy0bc-ptNR-30">
          <mxGeometry x="-0.5323" relative="1" as="geometry">
            <mxPoint x="45" y="-2" as="offset" />
          </mxGeometry>
        </mxCell>
        <mxCell id="n9ktEe5yNUZy0bc-ptNR-27" value="Select Documents" style="rounded=1;whiteSpace=wrap;html=1;fillColor=#F2CC8F;strokeColor=#E07A5F;fontColor=#393C56;arcSize=14;" vertex="1" parent="1">
          <mxGeometry x="152.5" y="439" width="120" height="60" as="geometry" />
        </mxCell>
        <mxCell id="b3z0fCEWwH0nH7quRvht-16" style="edgeStyle=orthogonalEdgeStyle;rounded=0;orthogonalLoop=1;jettySize=auto;html=1;exitX=0.5;exitY=1;exitDx=0;exitDy=0;entryX=0;entryY=0.5;entryDx=0;entryDy=0;" edge="1" parent="1" source="n9ktEe5yNUZy0bc-ptNR-47" target="n9ktEe5yNUZy0bc-ptNR-88">
          <mxGeometry relative="1" as="geometry" />
        </mxCell>
        <mxCell id="n9ktEe5yNUZy0bc-ptNR-47" value="Set up Printing properties" style="rounded=1;whiteSpace=wrap;html=1;fillColor=#F2CC8F;strokeColor=#E07A5F;fontColor=#393C56;" vertex="1" parent="1">
          <mxGeometry x="152.5" y="655" width="120" height="60" as="geometry" />
        </mxCell>
        <mxCell id="n9ktEe5yNUZy0bc-ptNR-54" value="" style="edgeStyle=orthogonalEdgeStyle;rounded=0;orthogonalLoop=1;jettySize=auto;html=1;strokeColor=#000000;fontColor=#393C56;fillColor=#d5e8d4;strokeWidth=1;" edge="1" parent="1" source="n9ktEe5yNUZy0bc-ptNR-51" target="n9ktEe5yNUZy0bc-ptNR-53">
          <mxGeometry relative="1" as="geometry" />
        </mxCell>
        <mxCell id="n9ktEe5yNUZy0bc-ptNR-51" value="Purchase increase page order" style="rounded=1;whiteSpace=wrap;html=1;strokeColor=#82b366;fillColor=#d5e8d4;movable=1;resizable=1;rotatable=1;deletable=1;editable=1;locked=0;connectable=1;" vertex="1" parent="1">
          <mxGeometry x="855.5" y="301" width="115" height="52" as="geometry" />
        </mxCell>
        <mxCell id="n9ktEe5yNUZy0bc-ptNR-52" value="" style="edgeStyle=orthogonalEdgeStyle;rounded=0;orthogonalLoop=1;jettySize=auto;html=1;strokeColor=#0A0604;fontColor=#393C56;fillColor=#f8cecc;entryX=0;entryY=0.5;entryDx=0;entryDy=0;strokeWidth=1;exitX=1;exitY=0.5;exitDx=0;exitDy=0;" edge="1" parent="1" source="n9ktEe5yNUZy0bc-ptNR-39" target="n9ktEe5yNUZy0bc-ptNR-51">
          <mxGeometry relative="1" as="geometry">
            <mxPoint x="584" y="383" as="sourcePoint" />
          </mxGeometry>
        </mxCell>
        <mxCell id="b3z0fCEWwH0nH7quRvht-1" style="edgeStyle=orthogonalEdgeStyle;rounded=0;orthogonalLoop=1;jettySize=auto;html=1;exitX=0;exitY=0.5;exitDx=0;exitDy=0;entryX=1;entryY=0.5;entryDx=0;entryDy=0;" edge="1" parent="1" source="n9ktEe5yNUZy0bc-ptNR-53" target="n9ktEe5yNUZy0bc-ptNR-57">
          <mxGeometry relative="1" as="geometry" />
        </mxCell>
        <mxCell id="b3z0fCEWwH0nH7quRvht-2" value="Paid success" style="edgeLabel;html=1;align=center;verticalAlign=middle;resizable=0;points=[];" vertex="1" connectable="0" parent="b3z0fCEWwH0nH7quRvht-1">
          <mxGeometry x="-0.0495" relative="1" as="geometry">
            <mxPoint x="13" as="offset" />
          </mxGeometry>
        </mxCell>
        <mxCell id="b3z0fCEWwH0nH7quRvht-40" style="edgeStyle=orthogonalEdgeStyle;rounded=0;orthogonalLoop=1;jettySize=auto;html=1;exitX=0.5;exitY=1;exitDx=0;exitDy=0;entryX=1;entryY=0.5;entryDx=0;entryDy=0;" edge="1" parent="1" source="n9ktEe5yNUZy0bc-ptNR-53" target="n9ktEe5yNUZy0bc-ptNR-129">
          <mxGeometry relative="1" as="geometry" />
        </mxCell>
        <mxCell id="b3z0fCEWwH0nH7quRvht-41" value="Paid fail" style="edgeLabel;html=1;align=center;verticalAlign=middle;resizable=0;points=[];" connectable="0" vertex="1" parent="b3z0fCEWwH0nH7quRvht-40">
          <mxGeometry x="-0.3392" y="4" relative="1" as="geometry">
            <mxPoint as="offset" />
          </mxGeometry>
        </mxCell>
        <mxCell id="n9ktEe5yNUZy0bc-ptNR-53" value="" style="rhombus;whiteSpace=wrap;html=1;strokeColor=#82b366;fillColor=#d5e8d4;" vertex="1" parent="1">
          <mxGeometry x="864.5" y="419.25" width="97" height="69" as="geometry" />
        </mxCell>
        <mxCell id="n9ktEe5yNUZy0bc-ptNR-9" value="System" style="swimlane;startSize=20;html=1;labelBackgroundColor=none;fillColor=#FFFF66;strokeColor=#b85450;movable=0;resizable=0;rotatable=0;deletable=0;editable=0;locked=1;connectable=0;" vertex="1" parent="1">
          <mxGeometry x="371" y="138" width="395" height="1461" as="geometry" />
        </mxCell>
        <mxCell id="n9ktEe5yNUZy0bc-ptNR-10" value="BK Pay" style="swimlane;startSize=20;html=1;labelBackgroundColor=none;fillColor=#6d8764;strokeColor=#3A5431;fontColor=#ffffff;movable=1;resizable=1;rotatable=1;deletable=1;editable=1;locked=0;connectable=1;" vertex="1" parent="1">
          <mxGeometry x="766" y="138" width="300" height="1462" as="geometry" />
        </mxCell>
        <mxCell id="n9ktEe5yNUZy0bc-ptNR-8" value="Student" style="swimlane;startSize=20;html=1;labelBackgroundColor=none;fillColor=#FF0000;strokeColor=#E07A5F;fontColor=#393C56;movable=0;resizable=0;rotatable=0;deletable=0;editable=0;locked=1;connectable=0;" vertex="1" parent="1">
          <mxGeometry x="51" y="138" width="320" height="1461" as="geometry" />
        </mxCell>
        <mxCell id="n9ktEe5yNUZy0bc-ptNR-7" value="Printing Service Module" style="swimlane;childLayout=stackLayout;resizeParent=1;resizeParentMax=0;startSize=20;html=1;labelBackgroundColor=none;fillColor=#f8cecc;strokeColor=#b85450;movable=0;resizable=0;rotatable=0;deletable=0;editable=0;locked=1;connectable=0;container=0;" vertex="1" parent="1">
          <mxGeometry x="51" y="118" width="1015" height="1482" as="geometry" />
        </mxCell>
        <mxCell id="b3z0fCEWwH0nH7quRvht-6" style="edgeStyle=orthogonalEdgeStyle;rounded=0;orthogonalLoop=1;jettySize=auto;html=1;exitX=0.5;exitY=1;exitDx=0;exitDy=0;entryX=1;entryY=0.5;entryDx=0;entryDy=0;" edge="1" parent="1" source="n9ktEe5yNUZy0bc-ptNR-57" target="n9ktEe5yNUZy0bc-ptNR-82">
          <mxGeometry relative="1" as="geometry">
            <Array as="points">
              <mxPoint x="712" y="483" />
              <mxPoint x="712" y="1355" />
            </Array>
          </mxGeometry>
        </mxCell>
        <mxCell id="n9ktEe5yNUZy0bc-ptNR-57" value="Update Page available" style="rounded=1;whiteSpace=wrap;html=1;strokeColor=#b85450;fillColor=#f8cecc;movable=1;resizable=1;rotatable=1;deletable=1;editable=1;locked=0;connectable=1;" vertex="1" parent="1">
          <mxGeometry x="626" y="425" width="100" height="57.49999999999999" as="geometry" />
        </mxCell>
        <mxCell id="n9ktEe5yNUZy0bc-ptNR-39" value="Create order" style="rounded=0;whiteSpace=wrap;html=1;strokeColor=#b85450;fillColor=#f8cecc;movable=1;resizable=1;rotatable=1;deletable=1;editable=1;locked=0;connectable=1;" vertex="1" parent="1">
          <mxGeometry x="597" y="298.25" width="106" height="57.49999999999999" as="geometry" />
        </mxCell>
        <mxCell id="n9ktEe5yNUZy0bc-ptNR-40" value="" style="edgeStyle=orthogonalEdgeStyle;rounded=0;orthogonalLoop=1;jettySize=auto;html=1;strokeColor=#000000;fontColor=#393C56;fillColor=#F2CC8F;strokeWidth=1;" edge="1" parent="1" source="n9ktEe5yNUZy0bc-ptNR-29" target="n9ktEe5yNUZy0bc-ptNR-39">
          <mxGeometry relative="1" as="geometry" />
        </mxCell>
        <mxCell id="n9ktEe5yNUZy0bc-ptNR-29" value="Create number of pages to Purchase" style="rounded=1;whiteSpace=wrap;html=1;fillColor=#f8cecc;strokeColor=#b85450;movable=1;resizable=1;rotatable=1;deletable=1;editable=1;locked=0;connectable=1;" vertex="1" parent="1">
          <mxGeometry x="432" y="298.25" width="90" height="57.49999999999999" as="geometry" />
        </mxCell>
        <mxCell id="b3z0fCEWwH0nH7quRvht-13" style="edgeStyle=orthogonalEdgeStyle;rounded=0;orthogonalLoop=1;jettySize=auto;html=1;exitX=0.5;exitY=1;exitDx=0;exitDy=0;entryX=0;entryY=0.5;entryDx=0;entryDy=0;" edge="1" parent="1" source="n9ktEe5yNUZy0bc-ptNR-82" target="n9ktEe5yNUZy0bc-ptNR-129">
          <mxGeometry relative="1" as="geometry">
            <Array as="points">
              <mxPoint x="606" y="1451" />
            </Array>
          </mxGeometry>
        </mxCell>
        <mxCell id="n9ktEe5yNUZy0bc-ptNR-82" value="Log Activity" style="rounded=1;whiteSpace=wrap;html=1;strokeColor=#b85450;fillColor=#f8cecc;movable=1;resizable=1;rotatable=1;deletable=1;editable=1;locked=0;connectable=1;" vertex="1" parent="1">
          <mxGeometry x="556.25" y="1326" width="100" height="57.49999999999999" as="geometry" />
        </mxCell>
        <mxCell id="b3z0fCEWwH0nH7quRvht-20" style="edgeStyle=orthogonalEdgeStyle;rounded=0;orthogonalLoop=1;jettySize=auto;html=1;exitX=0.5;exitY=1;exitDx=0;exitDy=0;entryX=0.5;entryY=0;entryDx=0;entryDy=0;" edge="1" parent="1" source="n9ktEe5yNUZy0bc-ptNR-88" target="n9ktEe5yNUZy0bc-ptNR-90">
          <mxGeometry relative="1" as="geometry" />
        </mxCell>
        <mxCell id="n9ktEe5yNUZy0bc-ptNR-88" value="Check print properties" style="whiteSpace=wrap;html=1;fillColor=#f8cecc;strokeColor=#b85450;rounded=1;" vertex="1" parent="1">
          <mxGeometry x="385" y="762" width="120" height="60" as="geometry" />
        </mxCell>
        <mxCell id="AN-kq-exyotqL5OQ-fnr-16" value="" style="edgeStyle=orthogonalEdgeStyle;rounded=0;orthogonalLoop=1;jettySize=auto;html=1;" edge="1" parent="1" source="n9ktEe5yNUZy0bc-ptNR-90" target="n9ktEe5yNUZy0bc-ptNR-104">
          <mxGeometry relative="1" as="geometry" />
        </mxCell>
        <mxCell id="AN-kq-exyotqL5OQ-fnr-17" value="&lt;span style=&quot;color: rgb(57, 60, 86);&quot;&gt;Valid&lt;/span&gt;" style="edgeLabel;html=1;align=center;verticalAlign=middle;resizable=0;points=[];" connectable="0" vertex="1" parent="AN-kq-exyotqL5OQ-fnr-16">
          <mxGeometry x="-0.3999" y="4" relative="1" as="geometry">
            <mxPoint x="-5" y="3" as="offset" />
          </mxGeometry>
        </mxCell>
        <mxCell id="b3z0fCEWwH0nH7quRvht-15" style="edgeStyle=orthogonalEdgeStyle;rounded=0;orthogonalLoop=1;jettySize=auto;html=1;exitX=0;exitY=0.5;exitDx=0;exitDy=0;entryX=0;entryY=0.5;entryDx=0;entryDy=0;" edge="1" parent="1" source="n9ktEe5yNUZy0bc-ptNR-90" target="n9ktEe5yNUZy0bc-ptNR-47">
          <mxGeometry relative="1" as="geometry">
            <Array as="points">
              <mxPoint x="133" y="887" />
              <mxPoint x="133" y="685" />
            </Array>
          </mxGeometry>
        </mxCell>
        <mxCell id="b3z0fCEWwH0nH7quRvht-18" value="Invalid" style="edgeLabel;html=1;align=center;verticalAlign=middle;resizable=0;points=[];" connectable="0" vertex="1" parent="b3z0fCEWwH0nH7quRvht-15">
          <mxGeometry x="-0.7079" y="1" relative="1" as="geometry">
            <mxPoint as="offset" />
          </mxGeometry>
        </mxCell>
        <mxCell id="n9ktEe5yNUZy0bc-ptNR-90" value="" style="rhombus;whiteSpace=wrap;html=1;strokeColor=#b85450;fillColor=#f8cecc;" vertex="1" parent="1">
          <mxGeometry x="413" y="860" width="59" height="53" as="geometry" />
        </mxCell>
        <mxCell id="b3z0fCEWwH0nH7quRvht-12" value="" style="edgeStyle=orthogonalEdgeStyle;rounded=0;orthogonalLoop=1;jettySize=auto;html=1;" edge="1" parent="1" source="n9ktEe5yNUZy0bc-ptNR-104" target="n9ktEe5yNUZy0bc-ptNR-107">
          <mxGeometry relative="1" as="geometry" />
        </mxCell>
        <mxCell id="n9ktEe5yNUZy0bc-ptNR-110" value="" style="edgeStyle=orthogonalEdgeStyle;rounded=0;orthogonalLoop=1;jettySize=auto;html=1;strokeColor=#000000;fontColor=#393C56;fillColor=#f8cecc;strokeWidth=1;" edge="1" parent="1" source="n9ktEe5yNUZy0bc-ptNR-107" target="n9ktEe5yNUZy0bc-ptNR-109">
          <mxGeometry relative="1" as="geometry" />
        </mxCell>
        <mxCell id="n9ktEe5yNUZy0bc-ptNR-112" value="Not Enough" style="edgeLabel;html=1;align=center;verticalAlign=middle;resizable=0;points=[];strokeColor=#E07A5F;fontColor=#393C56;fillColor=#F2CC8F;" connectable="0" vertex="1" parent="n9ktEe5yNUZy0bc-ptNR-110">
          <mxGeometry x="-0.098" y="2" relative="1" as="geometry">
            <mxPoint as="offset" />
          </mxGeometry>
        </mxCell>
        <mxCell id="n9ktEe5yNUZy0bc-ptNR-107" value="" style="rhombus;whiteSpace=wrap;html=1;strokeColor=#b85450;fillColor=#f8cecc;" vertex="1" parent="1">
          <mxGeometry x="576.25" y="950" width="60" height="62" as="geometry" />
        </mxCell>
        <mxCell id="b3z0fCEWwH0nH7quRvht-17" style="edgeStyle=orthogonalEdgeStyle;rounded=0;orthogonalLoop=1;jettySize=auto;html=1;exitX=0;exitY=0.5;exitDx=0;exitDy=0;entryX=1;entryY=0.5;entryDx=0;entryDy=0;" edge="1" parent="1" source="n9ktEe5yNUZy0bc-ptNR-109" target="n9ktEe5yNUZy0bc-ptNR-47">
          <mxGeometry relative="1" as="geometry" />
        </mxCell>
        <mxCell id="n9ktEe5yNUZy0bc-ptNR-109" value="Display message" style="rounded=1;whiteSpace=wrap;html=1;fillColor=#f8cecc;strokeColor=#b85450;" vertex="1" parent="1">
          <mxGeometry x="551" y="657" width="110.5" height="56" as="geometry" />
        </mxCell>
        <mxCell id="AN-kq-exyotqL5OQ-fnr-18" style="edgeStyle=orthogonalEdgeStyle;rounded=0;orthogonalLoop=1;jettySize=auto;html=1;entryX=0.476;entryY=0.277;entryDx=0;entryDy=0;entryPerimeter=0;" edge="1" parent="1" source="n9ktEe5yNUZy0bc-ptNR-129" target="n9ktEe5yNUZy0bc-ptNR-130">
          <mxGeometry relative="1" as="geometry" />
        </mxCell>
        <mxCell id="b3z0fCEWwH0nH7quRvht-19" value="Finish" style="edgeLabel;html=1;align=center;verticalAlign=middle;resizable=0;points=[];" vertex="1" connectable="0" parent="AN-kq-exyotqL5OQ-fnr-18">
          <mxGeometry x="-0.1582" y="-2" relative="1" as="geometry">
            <mxPoint as="offset" />
          </mxGeometry>
        </mxCell>
        <mxCell id="n9ktEe5yNUZy0bc-ptNR-129" value="" style="rhombus;whiteSpace=wrap;html=1;strokeColor=#b85450;fillColor=#f8cecc;" vertex="1" parent="1">
          <mxGeometry x="623" y="1416" width="80" height="70" as="geometry" />
        </mxCell>
        <mxCell id="n9ktEe5yNUZy0bc-ptNR-113" value="Print Documents" style="rounded=1;whiteSpace=wrap;html=1;fillColor=#f8cecc;strokeColor=#b85450;" vertex="1" parent="1">
          <mxGeometry x="399" y="1119" width="120" height="60" as="geometry" />
        </mxCell>
        <mxCell id="n9ktEe5yNUZy0bc-ptNR-130" value="" style="ellipse;whiteSpace=wrap;html=1;aspect=fixed;strokeColor=default;fillColor=none;gradientColor=none;fillStyle=auto;perimeterSpacing=17;shadow=0;" vertex="1" parent="1">
          <mxGeometry x="648" y="1561" width="30" height="30" as="geometry" />
        </mxCell>
        <mxCell id="AN-kq-exyotqL5OQ-fnr-9" style="edgeStyle=orthogonalEdgeStyle;rounded=0;orthogonalLoop=1;jettySize=auto;html=1;entryX=0.5;entryY=0;entryDx=0;entryDy=0;" edge="1" parent="1" source="n9ktEe5yNUZy0bc-ptNR-25" target="n9ktEe5yNUZy0bc-ptNR-27">
          <mxGeometry relative="1" as="geometry" />
        </mxCell>
        <mxCell id="AN-kq-exyotqL5OQ-fnr-10" value="&lt;span style=&quot;color: rgb(57, 60, 86);&quot;&gt;[Print Documents]&lt;/span&gt;" style="edgeLabel;html=1;align=center;verticalAlign=middle;resizable=0;points=[];" connectable="0" vertex="1" parent="AN-kq-exyotqL5OQ-fnr-9">
          <mxGeometry x="-0.1872" y="4" relative="1" as="geometry">
            <mxPoint x="-1" y="-2" as="offset" />
          </mxGeometry>
        </mxCell>
        <mxCell id="n9ktEe5yNUZy0bc-ptNR-25" value="" style="rhombus;whiteSpace=wrap;html=1;strokeColor=#E07A5F;fontColor=#393C56;fillColor=#F2CC8F;" vertex="1" parent="1">
          <mxGeometry x="172.5" y="292" width="80" height="70" as="geometry" />
        </mxCell>
        <mxCell id="b3z0fCEWwH0nH7quRvht-38" value="" style="edgeStyle=orthogonalEdgeStyle;rounded=0;orthogonalLoop=1;jettySize=auto;html=1;" edge="1" parent="1" source="66kOjhKlg9QzN3IeVTge-13" target="b3z0fCEWwH0nH7quRvht-26">
          <mxGeometry relative="1" as="geometry" />
        </mxCell>
        <mxCell id="66kOjhKlg9QzN3IeVTge-13" value="&lt;p style=&quot;line-height: 100%;&quot;&gt;&lt;font style=&quot;font-size: 10px;&quot;&gt;&amp;nbsp;Update Remaining Pages&lt;/font&gt;&lt;/p&gt;" style="rounded=1;whiteSpace=wrap;html=1;fontFamily=Helvetica;fontSize=11;labelBackgroundColor=none;fillColor=#f8cecc;strokeColor=#b85450;verticalAlign=middle;" vertex="1" parent="1">
          <mxGeometry x="546.25" y="1119" width="120" height="60" as="geometry" />
        </mxCell>
        <mxCell id="n9ktEe5yNUZy0bc-ptNR-45" value="Select Printers" style="rounded=1;whiteSpace=wrap;html=1;fillColor=#F2CC8F;strokeColor=#E07A5F;fontColor=#393C56;" vertex="1" parent="1">
          <mxGeometry x="152.5" y="550" width="120" height="60" as="geometry" />
        </mxCell>
        <mxCell id="n9ktEe5yNUZy0bc-ptNR-104" value="Check available page" style="rounded=1;whiteSpace=wrap;html=1;fillColor=#f8cecc;strokeColor=#b85450;" vertex="1" parent="1">
          <mxGeometry x="403.5" y="951" width="83" height="60" as="geometry" />
        </mxCell>
        <mxCell id="b3z0fCEWwH0nH7quRvht-29" style="edgeStyle=orthogonalEdgeStyle;rounded=0;orthogonalLoop=1;jettySize=auto;html=1;entryX=0.5;entryY=0;entryDx=0;entryDy=0;exitX=0.648;exitY=0.789;exitDx=0;exitDy=0;exitPerimeter=0;" edge="1" parent="1" source="HC6WTdqTUnvUWUWs_5I_-8" target="n9ktEe5yNUZy0bc-ptNR-113">
          <mxGeometry relative="1" as="geometry">
            <mxPoint x="565" y="1083" as="sourcePoint" />
            <Array as="points">
              <mxPoint x="580" y="1092" />
              <mxPoint x="459" y="1092" />
            </Array>
          </mxGeometry>
        </mxCell>
        <mxCell id="b3z0fCEWwH0nH7quRvht-30" style="edgeStyle=orthogonalEdgeStyle;rounded=0;orthogonalLoop=1;jettySize=auto;html=1;" edge="1" parent="1" source="HC6WTdqTUnvUWUWs_5I_-8" target="66kOjhKlg9QzN3IeVTge-13">
          <mxGeometry relative="1" as="geometry" />
        </mxCell>
        <mxCell id="HC6WTdqTUnvUWUWs_5I_-8" value="" style="html=1;points=[];perimeter=orthogonalPerimeter;fillColor=strokeColor;rotation=90;" vertex="1" parent="1">
          <mxGeometry x="603.75" y="1024" width="5" height="90" as="geometry" />
        </mxCell>
        <mxCell id="b3z0fCEWwH0nH7quRvht-25" style="edgeStyle=orthogonalEdgeStyle;rounded=0;orthogonalLoop=1;jettySize=auto;html=1;exitX=0.5;exitY=1;exitDx=0;exitDy=0;" edge="1" parent="1" source="66kOjhKlg9QzN3IeVTge-13" target="66kOjhKlg9QzN3IeVTge-13">
          <mxGeometry relative="1" as="geometry" />
        </mxCell>
        <mxCell id="HC6WTdqTUnvUWUWs_5I_-26" style="edgeStyle=orthogonalEdgeStyle;rounded=0;orthogonalLoop=1;jettySize=auto;html=1;entryX=0.5;entryY=0;entryDx=0;entryDy=0;" edge="1" parent="1" source="b3z0fCEWwH0nH7quRvht-26" target="n9ktEe5yNUZy0bc-ptNR-82">
          <mxGeometry relative="1" as="geometry" />
        </mxCell>
        <mxCell id="b3z0fCEWwH0nH7quRvht-26" value="" style="html=1;points=[];perimeter=orthogonalPerimeter;fillColor=strokeColor;rotation=90;" vertex="1" parent="1">
          <mxGeometry x="603.75" y="1221" width="5" height="90" as="geometry" />
        </mxCell>
        <mxCell id="b3z0fCEWwH0nH7quRvht-27" style="edgeStyle=orthogonalEdgeStyle;rounded=0;orthogonalLoop=1;jettySize=auto;html=1;exitX=0.5;exitY=1;exitDx=0;exitDy=0;entryX=0.658;entryY=0.499;entryDx=0;entryDy=0;entryPerimeter=0;" edge="1" parent="1" source="n9ktEe5yNUZy0bc-ptNR-107" target="HC6WTdqTUnvUWUWs_5I_-8">
          <mxGeometry relative="1" as="geometry" />
        </mxCell>
        <mxCell id="b3z0fCEWwH0nH7quRvht-28" value="Enough" style="edgeLabel;html=1;align=center;verticalAlign=middle;resizable=0;points=[];" vertex="1" connectable="0" parent="b3z0fCEWwH0nH7quRvht-27">
          <mxGeometry x="-0.3162" y="3" relative="1" as="geometry">
            <mxPoint y="-1" as="offset" />
          </mxGeometry>
        </mxCell>
        <mxCell id="b3z0fCEWwH0nH7quRvht-33" style="edgeStyle=orthogonalEdgeStyle;rounded=0;orthogonalLoop=1;jettySize=auto;html=1;exitX=0.5;exitY=1;exitDx=0;exitDy=0;entryX=-0.163;entryY=0.819;entryDx=0;entryDy=0;entryPerimeter=0;" edge="1" parent="1" source="n9ktEe5yNUZy0bc-ptNR-113" target="b3z0fCEWwH0nH7quRvht-26">
          <mxGeometry relative="1" as="geometry">
            <Array as="points">
              <mxPoint x="454" y="1179" />
              <mxPoint x="454" y="1238" />
              <mxPoint x="578" y="1238" />
              <mxPoint x="578" y="1263" />
            </Array>
          </mxGeometry>
        </mxCell>
        <mxCell id="HC6WTdqTUnvUWUWs_5I_-19" style="edgeStyle=orthogonalEdgeStyle;rounded=0;orthogonalLoop=1;jettySize=auto;html=1;entryX=0.411;entryY=0.73;entryDx=0;entryDy=0;entryPerimeter=0;" edge="1" parent="1" source="n9ktEe5yNUZy0bc-ptNR-45" target="HC6WTdqTUnvUWUWs_5I_-8">
          <mxGeometry relative="1" as="geometry">
            <Array as="points">
              <mxPoint x="88" y="580" />
              <mxPoint x="88" y="1035" />
              <mxPoint x="586" y="1035" />
              <mxPoint x="586" y="1069" />
            </Array>
            <mxPoint x="586" y="1035" as="targetPoint" />
          </mxGeometry>
        </mxCell>
        <mxCell id="HC6WTdqTUnvUWUWs_5I_-24" style="edgeStyle=orthogonalEdgeStyle;rounded=0;orthogonalLoop=1;jettySize=auto;html=1;entryX=0.53;entryY=0.862;entryDx=0;entryDy=0;entryPerimeter=0;" edge="1" parent="1" source="n9ktEe5yNUZy0bc-ptNR-27" target="HC6WTdqTUnvUWUWs_5I_-8">
          <mxGeometry relative="1" as="geometry">
            <Array as="points">
              <mxPoint x="66" y="469" />
              <mxPoint x="66" y="1051" />
              <mxPoint x="574" y="1051" />
            </Array>
          </mxGeometry>
        </mxCell>
      </root>
    </mxGraphModel>
  </diagram>
</mxfile>
